<svg width="24" height="24" viewBox="0 0 24 24" fill="none" xmlns="http://www.w3.org/2000/svg">
<path d="M5.21184 6.24163C4.42419 7.02928 3.98169 8.09757 3.98169 9.21147C3.98169 10.3254 4.42419 11.3937 5.21184 12.1813L11.5758 18.5453C11.8101 18.7796 12.19 18.7796 12.4243 18.5453L18.7883 12.1813C19.5759 11.3937 20.0184 10.3254 20.0184 9.21147C20.0184 8.09756 19.5759 7.02928 18.7883 6.24163C18.0006 5.45397 16.9324 5.01147 15.8184 5.01147C14.7045 5.01148 13.6362 5.45397 12.8486 6.24163L12.2074 6.88285C12.0929 6.99734 11.9073 6.99734 11.7928 6.88285L11.1515 6.24163C10.3639 5.45397 9.2956 5.01148 8.18169 5.01147C7.06778 5.01147 5.99949 5.45397 5.21184 6.24163Z" fill="#C2CCDE" fill-opacity="0.25" stroke="#B8B8B8" stroke-linecap="round" stroke-linejoin="round"/>
</svg>
