<svg width="45" height="35" viewBox="0 0 45 35" fill="none" xmlns="http://www.w3.org/2000/svg">
<path d="M12.1041 23.235C12.1495 23.1499 12.2161 23.0726 12.3 23.0075L14.175 21.5923C14.3453 21.4682 14.5698 21.3992 14.8031 21.3992C15.0364 21.3992 15.261 21.4682 15.4312 21.5923C17.1375 22.847 19.425 23.5473 21.7875 23.5181C24.225 23.5181 25.8563 22.7157 25.8563 21.4464C25.8563 20.3002 24.5106 19.9154 21.9573 19.1854C21.6833 19.107 21.3954 19.0247 21.0938 18.9371M12.1041 23.235L11.663 22.9996C11.7448 22.8463 11.8597 22.7162 11.9936 22.6124L11.9988 22.6084L11.9988 22.6084L13.8738 21.1932L13.8804 21.1882L13.8805 21.1883C14.1454 20.9951 14.4759 20.8992 14.8031 20.8992C15.1304 20.8992 15.4608 20.9951 15.7258 21.1883L15.7275 21.1895C17.3374 22.3734 19.5161 23.0461 21.7813 23.0182L21.7875 23.0181V23.0181C22.961 23.0181 23.8926 22.8235 24.5108 22.5118C25.1249 22.2021 25.3563 21.8248 25.3563 21.4464C25.3563 21.2537 25.2996 21.1144 25.1795 20.982C25.0443 20.8331 24.814 20.6782 24.4394 20.512C23.8281 20.2408 22.9741 19.9965 21.8388 19.6717C21.5618 19.5924 21.268 19.5084 20.957 19.418M12.1041 23.235L11.663 22.9996C11.5808 23.1536 11.5353 23.3254 11.5353 23.5035C11.5353 23.6817 11.5808 23.8534 11.663 24.0075L12.1041 23.7721L11.663 24.0075C11.7017 24.0801 11.7479 24.1475 11.8 24.2094V24.2685L12.0056 24.4183C13.4553 25.4747 15.1917 26.2468 17.0733 26.6823L16.6939 28.0213L16.6939 28.0212L16.6921 28.0281C16.5962 28.3856 16.6921 28.7458 16.9194 29.0204C17.1409 29.288 17.4646 29.4521 17.8015 29.5109L17.8229 29.5146L17.8444 29.5165L18.0132 29.5311L18.0347 29.5329H18.0562H21.4123C21.4123 29.5329 21.4124 29.5329 21.4125 29.5329C21.7095 29.533 22.0087 29.4542 22.2596 29.2955C22.5104 29.1369 22.7134 28.8967 22.7948 28.5959C22.795 28.595 22.7952 28.5942 22.7955 28.5933L23.1855 27.1926C25.7426 27.028 27.8597 26.3998 29.3706 25.3786C30.9667 24.2998 31.8875 22.7762 31.8875 20.9504C31.8875 19.2213 30.9305 18.0104 29.5307 17.1281C28.153 16.2597 26.2886 15.6685 24.3203 15.1578C24.1247 15.1007 23.9336 15.0459 23.7477 14.9925C22.8394 14.7318 22.0537 14.5062 21.4537 14.2286C20.7177 13.8882 20.4875 13.5742 20.4875 13.2326C20.4875 12.8802 20.714 12.5711 21.3135 12.3258C21.9103 12.0816 22.7462 11.9673 23.6245 11.9673C25.7456 11.9693 27.7855 12.5547 29.3848 13.6046C29.6516 13.7852 29.9777 13.8732 30.3 13.8695C30.6239 13.8657 30.9494 13.7692 31.2119 13.5793L31.2189 13.5742L31.2258 13.5689L32.965 12.2156C33.2509 12.0024 33.4297 11.6872 33.4297 11.3323C33.4297 10.9791 33.2529 10.6626 32.9793 10.4385L32.9794 10.4384L32.9696 10.4307L32.9321 10.4016L32.9168 10.3897L32.9007 10.379C31.6125 9.52772 30.1383 8.86707 28.58 8.41583L28.9638 6.90053C29.0693 6.53063 28.9581 6.17775 28.741 5.92126C28.5278 5.66934 28.2152 5.50669 27.8759 5.44576L27.8512 5.44134L27.8263 5.4394L27.6388 5.42481L27.6194 5.4233H27.6H24.2664C23.9714 5.4191 23.6732 5.49387 23.4219 5.64865L23.6842 6.07436L23.4219 5.64865C23.1689 5.80449 22.9628 6.04382 22.8802 6.34582L22.8802 6.34582L22.8787 6.35133L22.503 7.78956C20.3626 7.90849 18.3591 8.38723 16.8492 9.28494C15.2338 10.2453 14.1625 11.7048 14.1625 13.6849C14.1625 15.413 15.0695 16.6341 16.3581 17.5168C17.6257 18.3852 19.3018 18.9569 20.957 19.418M12.1041 23.235L21.0938 18.9371M20.957 19.418C20.9579 19.4182 20.9587 19.4185 20.9596 19.4187L21.0938 18.9371M20.957 19.418C20.9561 19.4177 20.9551 19.4175 20.9542 19.4172L21.0938 18.9371M41.6992 2.73868C42.6279 3.46129 43.3319 4.3245 43.7728 5.26248C44.4927 7.04612 44.5 8.69034 44.5 12.2259V22.8032C44.5 26.3244 44.4928 27.9687 43.7726 29.7525C43.3321 30.6945 42.6263 31.5613 41.6942 32.2866C40.7604 33.0132 39.6256 33.5771 38.3673 33.9326C36.0219 34.4971 33.8376 34.5 29.3062 34.5H15.6563C11.1433 34.5 8.9598 34.497 6.59645 33.9183C5.34306 33.5626 4.21274 33.0001 3.28209 32.2759C2.35402 31.5538 1.65027 30.6912 1.20937 29.754C0.506916 27.9691 0.5 26.3368 0.5 22.8032V12.1967C0.5 8.67542 0.507228 7.03118 1.22749 5.24724C1.66614 4.30664 2.36927 3.44061 3.29823 2.71541C4.22868 1.98905 5.3597 1.42452 6.61446 1.06729C8.95967 0.502914 11.1626 0.5 15.675 0.5H29.2875C33.8385 0.5 36.0025 0.503046 38.3839 1.09599C39.6376 1.45171 40.7683 2.01435 41.6992 2.73868Z" fill="black" stroke="#E8E8E8"/>
</svg>
